<svg id="visual" viewBox="0 0 900 600" width="900" height="600" xmlns="http://www.w3.org/2000/svg" xmlns:xlink="http://www.w3.org/1999/xlink" version="1.1"><rect x="0" y="0" width="900" height="600" fill="#fff"></rect><defs><linearGradient id="grad1_0" x1="33.3%" y1="0%" x2="100%" y2="100%"><stop offset="20%" stop-color="#f08b67" stop-opacity="1"></stop><stop offset="80%" stop-color="#f08b67" stop-opacity="1"></stop></linearGradient></defs><defs><linearGradient id="grad1_1" x1="33.3%" y1="0%" x2="100%" y2="100%"><stop offset="20%" stop-color="#f08b67" stop-opacity="1"></stop><stop offset="80%" stop-color="#f5a588" stop-opacity="1"></stop></linearGradient></defs><defs><linearGradient id="grad1_2" x1="33.3%" y1="0%" x2="100%" y2="100%"><stop offset="20%" stop-color="#f7bfab" stop-opacity="1"></stop><stop offset="80%" stop-color="#f5a588" stop-opacity="1"></stop></linearGradient></defs><defs><linearGradient id="grad1_3" x1="33.3%" y1="0%" x2="100%" y2="100%"><stop offset="20%" stop-color="#f7bfab" stop-opacity="1"></stop><stop offset="80%" stop-color="#f6d8ce" stop-opacity="1"></stop></linearGradient></defs><defs><linearGradient id="grad1_4" x1="33.3%" y1="0%" x2="100%" y2="100%"><stop offset="20%" stop-color="#f2f2f2" stop-opacity="1"></stop><stop offset="80%" stop-color="#f6d8ce" stop-opacity="1"></stop></linearGradient></defs><defs><linearGradient id="grad2_0" x1="0%" y1="0%" x2="66.7%" y2="100%"><stop offset="20%" stop-color="#f08b67" stop-opacity="1"></stop><stop offset="80%" stop-color="#f08b67" stop-opacity="1"></stop></linearGradient></defs><defs><linearGradient id="grad2_1" x1="0%" y1="0%" x2="66.7%" y2="100%"><stop offset="20%" stop-color="#f5a588" stop-opacity="1"></stop><stop offset="80%" stop-color="#f08b67" stop-opacity="1"></stop></linearGradient></defs><defs><linearGradient id="grad2_2" x1="0%" y1="0%" x2="66.7%" y2="100%"><stop offset="20%" stop-color="#f5a588" stop-opacity="1"></stop><stop offset="80%" stop-color="#f7bfab" stop-opacity="1"></stop></linearGradient></defs><defs><linearGradient id="grad2_3" x1="0%" y1="0%" x2="66.7%" y2="100%"><stop offset="20%" stop-color="#f6d8ce" stop-opacity="1"></stop><stop offset="80%" stop-color="#f7bfab" stop-opacity="1"></stop></linearGradient></defs><defs><linearGradient id="grad2_4" x1="0%" y1="0%" x2="66.7%" y2="100%"><stop offset="20%" stop-color="#f6d8ce" stop-opacity="1"></stop><stop offset="80%" stop-color="#f2f2f2" stop-opacity="1"></stop></linearGradient></defs><g transform="translate(900, 0)"><path d="M0 405.6C-43.5 375.5 -87.1 345.4 -136.2 328.9C-185.4 312.4 -240.1 309.4 -282.8 282.8C-325.6 256.3 -356.3 206.3 -374.7 155.2C-393.2 104.2 -399.4 52.1 -405.6 0L0 0Z" fill="#f5e5e0"></path><path d="M0 324.5C-34.8 300.4 -69.7 276.4 -109 263.1C-148.3 249.9 -192.1 247.5 -226.3 226.3C-260.5 205.1 -285 165 -299.8 124.2C-314.6 83.3 -319.5 41.7 -324.5 0L0 0Z" fill="#f7cbbc"></path><path d="M0 243.4C-26.1 225.3 -52.3 207.3 -81.7 197.3C-111.2 187.4 -144.1 185.6 -169.7 169.7C-195.3 153.8 -213.8 123.8 -224.8 93.1C-235.9 62.5 -239.7 31.2 -243.4 0L0 0Z" fill="#f6b299"></path><path d="M0 162.2C-17.4 150.2 -34.8 138.2 -54.5 131.6C-74.2 124.9 -96 123.7 -113.1 113.1C-130.2 102.5 -142.5 82.5 -149.9 62.1C-157.3 41.7 -159.8 20.8 -162.2 0L0 0Z" fill="#f39878"></path><path d="M0 81.1C-8.7 75.1 -17.4 69.1 -27.2 65.8C-37.1 62.5 -48 61.9 -56.6 56.6C-65.1 51.3 -71.3 41.3 -74.9 31C-78.6 20.8 -79.9 10.4 -81.1 0L0 0Z" fill="#f08b67"></path></g><g transform="translate(0, 600)"><path d="M0 -405.6C57.2 -403.9 114.5 -402.1 155.2 -374.7C196 -347.4 220.2 -294.5 255.3 -255.3C290.3 -216.1 336.2 -190.6 363.1 -150.4C389.9 -110.1 397.8 -55.1 405.6 0L0 0Z" fill="#f5e5e0"></path><path d="M0 -324.5C45.8 -323.1 91.6 -321.7 124.2 -299.8C156.8 -277.9 176.2 -235.6 204.2 -204.2C232.3 -172.9 269 -152.5 290.5 -120.3C312 -88.1 318.2 -44.1 324.5 0L0 0Z" fill="#f7cbbc"></path><path d="M0 -243.4C34.3 -242.3 68.7 -241.3 93.1 -224.8C117.6 -208.4 132.1 -176.7 153.2 -153.2C174.2 -129.6 201.7 -114.4 217.9 -90.2C234 -66.1 238.7 -33 243.4 0L0 0Z" fill="#f6b299"></path><path d="M0 -162.2C22.9 -161.5 45.8 -160.8 62.1 -149.9C78.4 -139 88.1 -117.8 102.1 -102.1C116.1 -86.4 134.5 -76.3 145.2 -60.2C156 -44.1 159.1 -22 162.2 0L0 0Z" fill="#f39878"></path><path d="M0 -81.1C11.4 -80.8 22.9 -80.4 31 -74.9C39.2 -69.5 44 -58.9 51.1 -51.1C58.1 -43.2 67.2 -38.1 72.6 -30.1C78 -22 79.6 -11 81.1 0L0 0Z" fill="#f08b67"></path></g></svg>
